<svg id="Layer_5" enable-background="new 0 0 64 64" height="512" viewBox="0 0 64 64" width="512" xmlns="http://www.w3.org/2000/svg"><g><g><g><path d="m21.04 11.4c.16.19.31.4.44.63.98 1.73.53 3.87-.97 5.08l-1.12.63c-1.57.6-3.35.13-4.43-1.14-.16-.19-.31-.4-.44-.63-.96-1.69-.55-3.79.88-5.01.19-.16.4-.31.63-.44 1.69-.96 3.79-.55 5.01.88z" fill="#ffeaa7"/></g><g><path d="m31.14 28 .86 6h-6-2.89l-5.15-6.68-.81-1.05c-.16-.21-.3-.43-.43-.66-1.5-2.65-.57-6.03 2.08-7.53l.59-.34c.2-.06.39-.15.58-.26s.38-.23.54-.37l.69-.39c2.65-1.51 6.02-.57 7.52 2.08.13.23.24.47.34.71l.98 2.49h.25z" fill="#a0d468"/></g><g><path d="m39.83 7.17c.72.73 1.17 1.73 1.17 2.83 0 2.21-1.79 4-4 4s-4-1.79-4-4c0-1.1.45-2.1 1.17-2.83.73-.72 1.73-1.17 2.83-1.17s2.1.45 2.83 1.17z" fill="#ff826e"/></g><g><path d="m32 34-.86-6-.85-6-.23-1.61c-.04-.26-.06-.52-.06-.79 0-3.09 2.51-5.6 5.6-5.6h1.4 1.4c1.54 0 2.94.63 3.96 1.64.11.11.22.23.33.36.81.98 1.31 2.23 1.31 3.6 0 .27-.02.53-.06.79l-.23 1.61-.85 6-.86 6h-4z" fill="#b4dd7f"/></g><g><path d="m23.11 34h2.89l-4.45 13.36c-.37 1.09-.55 2.22-.55 3.37v.63c0 4.62 2.93 8.54 7.04 10.01 1.12.41 2.34.63 3.6.63h-12c-2.94 0-5.6-1.19-7.52-3.12-1.93-1.92-3.12-4.58-3.12-7.52 0-1.55.34-3.09 1-4.5l4.92-10.55c.66-1.41 2.07-2.31 3.63-2.31z" fill="#aab2bd"/></g><g><path d="m32.36 62c5.88 0 10.64-4.76 10.64-10.64v-.63c0-1.15-.18-2.28-.55-3.37l-4.45-13.36h4 3.45c1.56 0 2.97.9 3.63 2.31l4.92 10.55c.66 1.41 1 2.95 1 4.5 0 5.88-4.76 10.64-10.64 10.64z" fill="#aab2bd"/></g><g><path d="m28.04 61.37c-4.11-1.47-7.04-5.39-7.04-10.01v-.63c0-1.15.18-2.28.55-3.37l4.45-13.36h6 6l4.45 13.36c.37 1.09.55 2.22.55 3.37v.63c0 5.88-4.76 10.64-10.64 10.64h-.72c-1.26 0-2.48-.22-3.6-.63z" fill="#ccd1d9"/></g></g><g><path d="m54.908 46.438-4.925-10.552c-.818-1.753-2.596-2.886-4.531-2.886h-2.299l.571-4h5.276v-2h-4.99l.571-4h4.419v-2h-4.133l.066-.462c.045-.307.067-.621.067-.936 0-.924-.192-1.803-.536-2.602h4.536v-2h-5.878c-.688-.707-1.534-1.255-2.479-1.599.618-.661 1.068-1.482 1.256-2.401h4.101v-2h-4.101c-.13-.637-.384-1.229-.732-1.753l2.904-2.904-1.414-1.414-2.905 2.904c-.524-.348-1.115-.602-1.752-.732v-4.101h-2v4.101c-.637.13-1.228.384-1.753.732l-2.905-2.904-1.414 1.414 2.904 2.904c-.347.524-.601 1.116-.731 1.753h-4.101v2h4.101c.188.92.638 1.74 1.256 2.401-1.976.718-3.513 2.349-4.097 4.385-.866-1.245-2.126-2.141-3.605-2.55-.925-.256-1.873-.297-2.793-.146.27-1.199.106-2.436-.494-3.517l3.284-2.815-1.301-1.519-3.279 2.812c-.499-.388-1.073-.677-1.698-.855l.332-4.313-1.995-.153-.331 4.308c-.627.078-1.237.28-1.805.596l-2.815-3.284-1.518 1.302 2.811 3.279c-.388.499-.677 1.073-.855 1.698l-4.312-.332-.156 1.994 4.307.331c.079.627.28 1.237.596 1.806l-3.284 2.815 1.301 1.519 3.28-2.811c.459.357.989.62 1.557.801-.486.595-.859 1.264-1.109 1.978l-5.668 3.21.986 1.74 4.322-2.449c.05.98.315 1.963.83 2.874.152.27.324.528.512.77l.104.134-3.795 2.15.986 1.74 4.042-2.291 3.384 4.392h-2.533c-1.935 0-3.713 1.133-4.531 2.886l-4.925 10.552c-.714 1.532-1.092 3.234-1.092 4.922 0 6.418 5.222 11.64 11.64 11.64h12 .721 12c6.417 0 11.639-5.222 11.639-11.64 0-1.688-.378-3.39-1.092-4.922zm-17.908-39.438c1.654 0 3 1.346 3 3s-1.346 3-3 3-3-1.346-3-3 1.346-3 3-3zm-1.398 8h2.797c2.537 0 4.601 2.064 4.601 4.602 0 .217-.015.434-.047.65l-1.821 12.748h-8.265l-1.822-12.75c-.03-.214-.045-.431-.045-.648 0-2.538 2.064-4.602 4.602-4.602zm-20.211.48c-.396-.698-.495-1.507-.281-2.279s.715-1.415 1.413-1.81c.456-.26.961-.391 1.473-.391.269 0 .539.036.805.11.771.214 1.415.715 1.81 1.413.396.697.495 1.506.282 2.279-.16.579-.482 1.084-.927 1.467l-1.013.575c-1.333.446-2.844-.095-3.562-1.364zm2.55 10.172c-.131-.168-.248-.347-.354-.532-1.229-2.173-.463-4.941 1.705-6.172l.504-.286c.228-.088.453-.189.669-.312.179-.101.335-.23.498-.35l.727-.412c1.051-.596 2.27-.745 3.431-.425 1.164.322 2.134 1.08 2.729 2.133.105.187.198.38.276.579l.441 1.125h-3.567v2h4.35l.005.013.034-.013h.029l.571 4h-4.989v2h5.275l.571 4h-7.241zm1.699 35.348c-5.316 0-9.64-4.324-9.64-9.64 0-1.398.313-2.808.904-4.077l4.925-10.552c.491-1.051 1.558-1.731 2.719-1.731h6.065l-4.016 12.046c-.396 1.189-.597 2.428-.597 3.681v.634c0 4.006 2.034 7.545 5.124 9.64h-5.484zm12 0c-.834 0-1.64-.118-2.413-.318.593-1.674 2.293-2.951 4.083-4.29 2.668-1.995 5.69-4.256 5.69-8.392 0-5.537-5.887-7-9-7h-1c-2.206 0-4 1.794-4 4s1.794 4 4 4 4-1.794 4-4h-2c0 1.103-.897 2-2 2s-2-.897-2-2 .897-2 2-2h.998c.286.001 7.002.078 7.002 5 0 3.134-2.374 4.91-4.888 6.791-1.96 1.466-3.963 2.982-4.753 5.194-3.17-1.58-5.359-4.848-5.359-8.625v-.634c0-1.038.166-2.063.494-3.048l4.226-12.678h10.56l4.225 12.678c.329.986.495 2.011.495 3.049v.634c0 5.315-4.324 9.64-9.64 9.64h-.72zm12.72 0h-5.484c3.09-2.095 5.124-5.634 5.124-9.64v-.634c0-1.252-.201-2.491-.598-3.681l-4.015-12.045h6.065c1.161 0 2.228.68 2.719 1.731l4.925 10.552c.592 1.269.904 2.679.904 4.077 0 5.316-4.324 9.64-9.64 9.64z"/><path d="m49.879 50.207c.08.379.121.767.121 1.153 0 3.11-2.53 5.64-5.64 5.64h-.36v2h.36c4.213 0 7.64-3.427 7.64-7.64 0-.525-.056-1.052-.164-1.567z"/><path d="m48.652 45.896h2v2.207h-2z" transform="matrix(.906 -.423 .423 .906 -15.22 25.414)"/><path d="m11.015 42.5h9.932v2h-9.932z" transform="matrix(.423 -.906 .906 .423 -30.196 39.589)"/><path d="m12.164 49.793c-.108.515-.164 1.042-.164 1.567 0 .247.012.491.034.732l1.992-.185c-.016-.179-.026-.362-.026-.547 0-.386.041-.774.121-1.153z"/><path d="m33 17h2v2h-2z"/><path d="m35 22h2v2h-2z"/><path d="m38 25h2v2h-2z"/><path d="m33 26h2v2h-2z"/><path d="m37 29h2v2h-2z"/><path d="m38 19h2v2h-2z"/><path d="m19 23h2v2h-2z"/><path d="m21 27h2v2h-2z"/><path d="m21 19h2v2h-2z"/><path d="m24 24h2v2h-2z"/></g></g></svg>